<svg width="960" height="960" viewBox="0 0 960 960" fill="none" xmlns="http://www.w3.org/2000/svg">
<path d="M955 763.851C955 852.181 883.245 923.998 794.979 924C784.386 924 773.811 922.909 763.55 920.889L763.538 920.887L502.872 868.713C488.106 865.757 472.901 865.756 458.135 868.71L197.317 920.887C187.2 922.91 176.616 924 166.024 924C77.756 924 6.00006 852.181 5.99997 763.851L5.99999 195.149C6.00012 106.818 77.7573 35.0001 166.024 35C176.618 35 187.192 36.091 197.453 38.1113L197.466 38.1132L458.126 90.2861C472.895 93.2423 488.105 93.2423 502.874 90.2861L763.534 38.1133L763.546 38.1113C773.802 36.0909 784.382 35 794.976 35C883.244 35.0001 955 106.819 955 195.149L955 763.851ZM430.813 241.693C430.813 209.289 407.947 181.387 376.174 175.02L177.831 135.272L176.379 134.983C172.974 134.419 169.573 134.14 166.019 134.14C132.412 134.14 105.06 161.508 105.06 195.149L105.06 767.919L105.044 767.918C107.144 799.669 133.626 824.858 165.866 824.858C169.834 824.858 173.842 824.433 177.734 823.709L177.734 823.708L376.166 783.968C407.943 777.604 430.813 749.7 430.813 717.292L430.813 241.693ZM855.936 195.147C855.936 161.506 828.584 134.137 794.978 134.137C791.559 134.137 788.002 134.419 784.6 134.984L584.676 175.026C552.9 181.391 530.03 209.295 530.03 241.702L530.03 717.302C530.03 749.706 552.896 777.608 584.669 783.976L782.819 823.684L782.936 823.705C787.004 824.434 791.013 824.858 794.978 824.858C828.584 824.858 855.935 797.49 855.936 763.849L855.936 195.147Z" fill="#19A1EC" stroke="#19A1EC" stroke-width="8"/>
</svg>
