<svg width="422" height="422" viewBox="0 0 422 422" fill="none" xmlns="http://www.w3.org/2000/svg">
<g filter="url(#filter0_d_285_26)">
<path fill-rule="evenodd" clip-rule="evenodd" d="M417 128.314C417 123.423 417.002 118.531 416.972 113.64C416.947 109.519 416.9 105.4 416.788 101.281C416.546 92.3047 416.016 83.2512 414.42 74.3747C412.801 65.3703 410.157 56.9898 405.991 48.8083C401.895 40.7669 396.544 33.4084 390.16 27.0289C383.778 20.6494 376.417 15.3024 368.373 11.209C360.183 7.04147 351.793 4.39848 342.779 2.77999C333.902 1.186 324.846 0.657498 315.869 0.414999C311.748 0.303499 307.626 0.256499 303.504 0.230999C298.61 0.200999 293.716 0.203499 288.822 0.203499L231.998 0H189.499L133.681 0.203499C128.777 0.203499 123.874 0.200999 118.97 0.230999C114.839 0.256499 110.71 0.303499 106.581 0.414999C97.5833 0.657498 88.5069 1.1865 79.6084 2.78249C70.582 4.40048 62.1801 7.04247 53.9791 11.207C45.9177 15.3009 38.5413 20.6484 32.1453 27.0289C25.7503 33.4079 20.3899 40.7649 16.2864 48.8048C12.1084 56.9903 9.45947 65.3758 7.83648 74.3852C6.23849 83.2582 5.70899 92.3087 5.4655 101.281C5.3545 105.4 5.3065 109.52 5.2815 113.64C5.2515 118.532 5 124.608 5 129.5L5.0015 184.544L5 227.499L5.254 283.713C5.254 288.611 5.252 293.509 5.2815 298.407C5.3065 302.533 5.3545 306.658 5.466 310.783C5.70899 319.771 6.23949 328.837 7.83898 337.726C9.46147 346.742 12.1099 355.135 16.2844 363.327C20.3884 371.38 25.7498 378.748 32.1453 385.136C38.5408 391.525 45.9152 396.879 53.9751 400.978C62.1811 405.151 70.587 407.798 79.6189 409.418C88.5134 411.014 97.5868 411.544 106.581 411.786C110.71 411.898 114.84 411.945 118.971 411.97C123.874 412 128.777 411.999 133.681 411.999L190.003 412H232.608L288.822 411.998C293.716 411.998 298.61 412 303.504 411.97C307.626 411.945 311.748 411.898 315.869 411.786C324.849 411.543 333.908 411.014 342.789 409.416C351.798 407.796 360.184 405.15 368.369 400.98C376.415 396.881 383.777 391.526 390.16 385.136C396.543 378.749 401.893 371.382 405.989 363.33C410.158 355.134 412.802 346.738 414.422 337.715C416.017 328.83 416.546 319.767 416.788 310.783C416.9 306.658 416.947 302.533 416.972 298.407C417.002 293.509 417 288.611 417 283.713C417 283.713 416.997 228.492 416.997 227.499V184.499C416.997 183.766 417 128.314 417 128.314" fill="white"/>
</g>
<mask id="mask0_285_26" style="mask-type:luminance" maskUnits="userSpaceOnUse" x="5" y="0" width="412" height="412">
<path fill-rule="evenodd" clip-rule="evenodd" d="M417 128.314C417 123.423 417.002 118.531 416.972 113.64C416.947 109.519 416.9 105.4 416.788 101.281C416.546 92.3047 416.016 83.2512 414.42 74.3747C412.801 65.3703 410.157 56.9898 405.991 48.8083C401.895 40.7669 396.544 33.4084 390.16 27.0289C383.778 20.6494 376.417 15.3024 368.373 11.209C360.183 7.04147 351.793 4.39848 342.779 2.77999C333.902 1.186 324.846 0.657498 315.869 0.414999C311.748 0.303499 307.626 0.256499 303.504 0.230999C298.61 0.200999 293.716 0.203499 288.822 0.203499L231.998 0H189.499L133.681 0.203499C128.777 0.203499 123.874 0.200999 118.97 0.230999C114.839 0.256499 110.71 0.303499 106.581 0.414999C97.5833 0.657498 88.5069 1.1865 79.6084 2.78249C70.582 4.40048 62.1801 7.04247 53.9791 11.207C45.9177 15.3009 38.5413 20.6484 32.1453 27.0289C25.7503 33.4079 20.3899 40.7649 16.2864 48.8048C12.1084 56.9903 9.45947 65.3758 7.83648 74.3852C6.23849 83.2582 5.70899 92.3087 5.4655 101.281C5.3545 105.4 5.3065 109.52 5.2815 113.64C5.2515 118.532 5 124.608 5 129.5L5.0015 184.544L5 227.499L5.254 283.713C5.254 288.611 5.252 293.509 5.2815 298.407C5.3065 302.533 5.3545 306.658 5.466 310.783C5.70899 319.771 6.23949 328.837 7.83898 337.726C9.46147 346.742 12.1099 355.135 16.2844 363.327C20.3884 371.38 25.7498 378.748 32.1453 385.136C38.5408 391.525 45.9152 396.879 53.9751 400.978C62.1811 405.151 70.587 407.798 79.6189 409.418C88.5134 411.014 97.5868 411.544 106.581 411.786C110.71 411.898 114.84 411.945 118.971 411.97C123.874 412 128.777 411.999 133.681 411.999L190.003 412H232.608L288.822 411.998C293.716 411.998 298.61 412 303.504 411.97C307.626 411.945 311.748 411.898 315.869 411.786C324.849 411.543 333.908 411.014 342.789 409.416C351.798 407.796 360.184 405.15 368.369 400.98C376.415 396.881 383.777 391.526 390.16 385.136C396.543 378.749 401.893 371.382 405.989 363.33C410.158 355.134 412.802 346.738 414.422 337.715C416.017 328.83 416.546 319.767 416.788 310.783C416.9 306.658 416.947 302.533 416.972 298.407C417.002 293.509 417 288.611 417 283.713C417 283.713 416.997 228.492 416.997 227.499V184.499C416.997 183.766 417 128.314 417 128.314" fill="white"/>
</mask>
<g mask="url(#mask0_285_26)">
<g filter="url(#filter1_i_285_26)">
<path fill-rule="evenodd" clip-rule="evenodd" d="M417 128.314C417 123.423 417.002 118.531 416.972 113.64C416.947 109.519 416.9 105.4 416.788 101.281C416.546 92.3047 416.016 83.2512 414.42 74.3747C412.801 65.3703 410.157 56.9898 405.991 48.8083C401.895 40.7669 396.544 33.4084 390.16 27.0289C383.778 20.6494 376.417 15.3024 368.373 11.209C360.183 7.04147 351.793 4.39848 342.779 2.77999C333.902 1.186 324.846 0.657498 315.869 0.414999C311.748 0.303499 307.626 0.256499 303.504 0.230999C298.61 0.200999 293.716 0.203499 288.822 0.203499L231.998 0H189.499L133.681 0.203499C128.777 0.203499 123.874 0.200999 118.97 0.230999C114.839 0.256499 110.71 0.303499 106.581 0.414999C97.5833 0.657498 88.5069 1.1865 79.6084 2.78249C70.582 4.40048 62.1801 7.04247 53.9791 11.207C45.9177 15.3009 38.5413 20.6484 32.1453 27.0289C25.7503 33.4079 20.3899 40.7649 16.2864 48.8048C12.1084 56.9903 9.45947 65.3758 7.83648 74.3852C6.23849 83.2582 5.70899 92.3087 5.4655 101.281C5.3545 105.4 5.3065 109.52 5.2815 113.64C5.2515 118.532 5 124.608 5 129.5L5.0015 184.544L5 227.499L5.254 283.713C5.254 288.611 5.252 293.509 5.2815 298.407C5.3065 302.533 5.3545 306.658 5.466 310.783C5.70899 319.771 6.23949 328.837 7.83898 337.726C9.46147 346.742 12.1099 355.135 16.2844 363.327C20.3884 371.38 25.7498 378.748 32.1453 385.136C38.5408 391.525 45.9152 396.879 53.9751 400.978C62.1811 405.151 70.587 407.798 79.6189 409.418C88.5134 411.014 97.5868 411.544 106.581 411.786C110.71 411.898 114.84 411.945 118.971 411.97C123.874 412 128.777 411.999 133.681 411.999L190.003 412H232.608L288.822 411.998C293.716 411.998 298.61 412 303.504 411.97C307.626 411.945 311.748 411.898 315.869 411.786C324.849 411.543 333.908 411.014 342.789 409.416C351.798 407.796 360.184 405.15 368.369 400.98C376.415 396.881 383.777 391.526 390.16 385.136C396.543 378.749 401.893 371.382 405.989 363.33C410.158 355.134 412.802 346.738 414.422 337.715C416.017 328.83 416.546 319.767 416.788 310.783C416.9 306.658 416.947 302.533 416.972 298.407C417.002 293.509 417 288.611 417 283.713C417 283.713 416.997 228.492 416.997 227.499V184.499C416.997 183.766 417 128.314 417 128.314" fill="url(#paint0_radial_285_26)"/>
<path fill-rule="evenodd" clip-rule="evenodd" d="M417 128.314C417 123.423 417.002 118.531 416.972 113.64C416.947 109.519 416.9 105.4 416.788 101.281C416.546 92.3047 416.016 83.2512 414.42 74.3747C412.801 65.3703 410.157 56.9898 405.991 48.8083C401.895 40.7669 396.544 33.4084 390.16 27.0289C383.778 20.6494 376.417 15.3024 368.373 11.209C360.183 7.04147 351.793 4.39848 342.779 2.77999C333.902 1.186 324.846 0.657498 315.869 0.414999C311.748 0.303499 307.626 0.256499 303.504 0.230999C298.61 0.200999 293.716 0.203499 288.822 0.203499L231.998 0H189.499L133.681 0.203499C128.777 0.203499 123.874 0.200999 118.97 0.230999C114.839 0.256499 110.71 0.303499 106.581 0.414999C97.5833 0.657498 88.5069 1.1865 79.6084 2.78249C70.582 4.40048 62.1801 7.04247 53.9791 11.207C45.9177 15.3009 38.5413 20.6484 32.1453 27.0289C25.7503 33.4079 20.3899 40.7649 16.2864 48.8048C12.1084 56.9903 9.45947 65.3758 7.83648 74.3852C6.23849 83.2582 5.70899 92.3087 5.4655 101.281C5.3545 105.4 5.3065 109.52 5.2815 113.64C5.2515 118.532 5 124.608 5 129.5L5.0015 184.544L5 227.499L5.254 283.713C5.254 288.611 5.252 293.509 5.2815 298.407C5.3065 302.533 5.3545 306.658 5.466 310.783C5.70899 319.771 6.23949 328.837 7.83898 337.726C9.46147 346.742 12.1099 355.135 16.2844 363.327C20.3884 371.38 25.7498 378.748 32.1453 385.136C38.5408 391.525 45.9152 396.879 53.9751 400.978C62.1811 405.151 70.587 407.798 79.6189 409.418C88.5134 411.014 97.5868 411.544 106.581 411.786C110.71 411.898 114.84 411.945 118.971 411.97C123.874 412 128.777 411.999 133.681 411.999L190.003 412H232.608L288.822 411.998C293.716 411.998 298.61 412 303.504 411.97C307.626 411.945 311.748 411.898 315.869 411.786C324.849 411.543 333.908 411.014 342.789 409.416C351.798 407.796 360.184 405.15 368.369 400.98C376.415 396.881 383.777 391.526 390.16 385.136C396.543 378.749 401.893 371.382 405.989 363.33C410.158 355.134 412.802 346.738 414.422 337.715C416.017 328.83 416.546 319.767 416.788 310.783C416.9 306.658 416.947 302.533 416.972 298.407C417.002 293.509 417 288.611 417 283.713C417 283.713 416.997 228.492 416.997 227.499V184.499C416.997 183.766 417 128.314 417 128.314" fill="white"/>
</g>
</g>
<path fill-rule="evenodd" clip-rule="evenodd" d="M293.238 121.473C302.103 121.473 306.536 121.473 310.27 121.846C345.89 125.404 374.064 153.538 377.627 189.109C378 192.837 378 197.264 378 206.117C378 214.971 378 219.397 377.627 223.126C374.064 258.696 345.89 286.831 310.27 290.388C306.536 290.761 302.103 290.761 293.238 290.761H127.763C118.897 290.761 114.464 290.761 110.73 290.388C75.11 286.831 46.9361 258.696 43.3735 223.126C43.0001 219.397 43 214.971 43 206.117C43 197.264 43.0001 192.837 43.3735 189.109C46.9361 153.538 75.11 125.404 110.73 121.846C114.464 121.473 118.897 121.473 127.763 121.473H293.238ZM127.763 178.095C112.265 178.095 99.7012 190.641 99.7012 206.117C99.7012 221.593 112.265 234.139 127.763 234.139H293.238C308.735 234.139 321.299 221.593 321.299 206.117C321.299 190.641 308.735 178.095 293.238 178.095H127.763Z" fill="#2E2E2E"/>
<defs>
<filter id="filter0_d_285_26" x="0" y="0" width="422" height="422" filterUnits="userSpaceOnUse" color-interpolation-filters="sRGB">
<feFlood flood-opacity="0" result="BackgroundImageFix"/>
<feColorMatrix in="SourceAlpha" type="matrix" values="0 0 0 0 0 0 0 0 0 0 0 0 0 0 0 0 0 0 127 0" result="hardAlpha"/>
<feOffset dy="5"/>
<feGaussianBlur stdDeviation="2.5"/>
<feColorMatrix type="matrix" values="0 0 0 0 0 0 0 0 0 0 0 0 0 0 0 0 0 0 0.3 0"/>
<feBlend mode="normal" in2="BackgroundImageFix" result="effect1_dropShadow_285_26"/>
<feBlend mode="normal" in="SourceGraphic" in2="effect1_dropShadow_285_26" result="shape"/>
</filter>
<filter id="filter1_i_285_26" x="5" y="0" width="412" height="413" filterUnits="userSpaceOnUse" color-interpolation-filters="sRGB">
<feFlood flood-opacity="0" result="BackgroundImageFix"/>
<feBlend mode="normal" in="SourceGraphic" in2="BackgroundImageFix" result="shape"/>
<feColorMatrix in="SourceAlpha" type="matrix" values="0 0 0 0 0 0 0 0 0 0 0 0 0 0 0 0 0 0 127 0" result="hardAlpha"/>
<feOffset dy="1"/>
<feGaussianBlur stdDeviation="2.5"/>
<feComposite in2="hardAlpha" operator="arithmetic" k2="-1" k3="1"/>
<feColorMatrix type="matrix" values="0 0 0 0 1 0 0 0 0 1 0 0 0 0 1 0 0 0 0.5 0"/>
<feBlend mode="normal" in2="shape" result="effect1_innerShadow_285_26"/>
</filter>
<radialGradient id="paint0_radial_285_26" cx="0" cy="0" r="1" gradientUnits="userSpaceOnUse" gradientTransform="translate(211 206) rotate(90) scale(206)">
<stop stop-color="white"/>
<stop offset="0.953855" stop-color="#EEEEEE"/>
</radialGradient>
</defs>
</svg>
